<svg id="Layer_1" data-name="Layer 1" xmlns="http://www.w3.org/2000/svg" xmlns:xlink="http://www.w3.org/1999/xlink" viewBox="0 0 444.87 309"><defs><style>.cls-1{fill:#757576;}.cls-2{fill:#00b6de;}.cls-2,.cls-3,.cls-4{stroke:#3d53a4;stroke-miterlimit:10;stroke-width:3px;}.cls-3{fill:#f6f6fb;}.cls-4{fill:#4262ae;}</style></defs><title>feature-2</title><circle class="cls-1" cx="144" cy="163.5" r="144"/><rect class="cls-2" x="221.38" y="211.45" width="288" height="117" transform="matrix(0.79, -0.62, 0.62, 0.79, -160.71, 158.83)"/><polygon class="cls-2" points="183.95 179.9 179.28 204.16 209.3 242.39 233.99 243.6 402.81 111 407.48 86.73 377.46 48.51 352.78 47.3 183.95 179.9"/><rect class="cls-3" x="266.38" y="247.45" width="198" height="45" rx="12" transform="translate(-160.71 158.83) rotate(-38.15)"/><rect class="cls-3" x="135" y="145.5" width="261" height="162" rx="15.05"/><path class="cls-4" d="M225,306v23.85a42.3,42.3,0,0,0,16.92,33.84L261,378l19.08-14.31A42.3,42.3,0,0,0,297,329.85V306h0a25.46,25.46,0,0,1-36,0h0a25.46,25.46,0,0,1-36,0Z" transform="translate(-72 -124.5)"/><path class="cls-4" d="M265.5,126h0a4.49,4.49,0,0,1,4.5,4.5v9a4.49,4.49,0,0,0,4.5,4.5h9a4.49,4.49,0,0,1,4.5,4.5h0a4.49,4.49,0,0,1-4.5,4.5h-9a4.49,4.49,0,0,0-4.5,4.5v9a4.49,4.49,0,0,1-4.5,4.5h0a4.49,4.49,0,0,1-4.5-4.5v-9a4.49,4.49,0,0,0-4.5-4.5h-9a4.49,4.49,0,0,1-4.5-4.5h0a4.49,4.49,0,0,1,4.5-4.5h9a4.49,4.49,0,0,0,4.5-4.5v-9A4.49,4.49,0,0,1,265.5,126Z" transform="translate(-72 -124.5)"/><path class="cls-4" d="M220.5,162h0a4.49,4.49,0,0,1,4.5,4.5v9a4.49,4.49,0,0,0,4.5,4.5h9a4.49,4.49,0,0,1,4.5,4.5h0a4.49,4.49,0,0,1-4.5,4.5h-9a4.49,4.49,0,0,0-4.5,4.5v9a4.49,4.49,0,0,1-4.5,4.5h0a4.49,4.49,0,0,1-4.5-4.5v-9a4.49,4.49,0,0,0-4.5-4.5h-9a4.49,4.49,0,0,1-4.5-4.5h0a4.49,4.49,0,0,1,4.5-4.5h9a4.49,4.49,0,0,0,4.5-4.5v-9A4.49,4.49,0,0,1,220.5,162Z" transform="translate(-72 -124.5)"/><rect class="cls-4" x="126" y="109.5" width="90" height="9" rx="4.5"/><rect class="cls-4" x="108" y="127.5" width="90" height="9" rx="4.5"/><rect class="cls-4" x="90" y="127.5" width="9" height="9" rx="4.5"/><rect class="cls-2" x="153" y="280.5" width="9" height="9" rx="4.5"/><rect class="cls-2" x="171" y="280.5" width="9" height="9" rx="4.5"/><rect class="cls-2" x="189" y="280.5" width="9" height="9" rx="4.5"/><rect class="cls-2" x="207" y="280.5" width="9" height="9" rx="4.5"/><rect class="cls-2" x="225" y="280.5" width="9" height="9" rx="4.5"/><rect class="cls-2" x="243" y="280.5" width="9" height="9" rx="4.5"/><rect class="cls-2" x="261" y="280.5" width="9" height="9" rx="4.5"/><rect class="cls-2" x="279" y="280.5" width="9" height="9" rx="4.5"/><rect class="cls-2" x="297" y="280.5" width="9" height="9" rx="4.5"/><rect class="cls-2" x="315" y="280.5" width="9" height="9" rx="4.5"/><rect class="cls-2" x="333" y="280.5" width="9" height="9" rx="4.5"/><rect class="cls-2" x="351" y="280.5" width="9" height="9" rx="4.5"/><rect class="cls-2" x="369" y="280.5" width="9" height="9" rx="4.5"/><rect class="cls-2" x="342" y="154.5" width="45" height="45" rx="12"/><image width="512" height="512" transform="translate(166.5 191.72) scale(0.09)" xlink:href="../../../../../../Downloads/pngimg.com%20-%20dollar_sign_PNG43.png"/></svg>