<svg id="Layer_1" data-name="Layer 1" xmlns="http://www.w3.org/2000/svg" viewBox="0 0 397.5 309"><defs><style>.cls-1{fill:#757576;}.cls-2,.cls-5{fill:#00b6de;}.cls-2,.cls-3,.cls-4{stroke:#3d53a4;stroke-miterlimit:10;stroke-width:3px;}.cls-3{fill:#f6f6fb;}.cls-4{fill:#4262ae;}</style></defs><title>feature-1</title><circle class="cls-1" cx="144" cy="163.5" r="144"/><rect class="cls-2" x="135" y="163.5" width="225" height="72" rx="15.05"/><rect class="cls-2" x="135" y="235.5" width="225" height="72" rx="15.05"/><rect class="cls-3" x="198" y="253.5" width="150" height="36" rx="15.05"/><rect class="cls-3" x="198" y="181.5" width="150" height="36" rx="15.05"/><circle class="cls-3" cx="162" cy="271.5" r="18"/><circle class="cls-3" cx="162" cy="199.5" r="18"/><rect class="cls-3" x="234" y="19.5" width="162" height="288" rx="15.05"/><rect class="cls-3" x="252" y="37.5" width="126" height="18" rx="9"/><rect class="cls-3" x="252" y="73.5" width="126" height="18" rx="9"/><rect class="cls-3" x="252" y="109.5" width="126" height="18" rx="9"/><rect class="cls-3" x="252" y="145.5" width="126" height="18" rx="9"/><rect class="cls-3" x="252" y="181.5" width="126" height="18" rx="9"/><path class="cls-4" d="M351,342v23.85a42.3,42.3,0,0,0,16.92,33.84L387,414l19.08-14.31A42.3,42.3,0,0,0,423,365.85V342h0a25.46,25.46,0,0,1-36,0h0a25.46,25.46,0,0,1-36,0Z" transform="translate(-72 -124.5)"/><path class="cls-5" d="M370.5,372.55h0a6.36,6.36,0,0,1,9,0h0a6.37,6.37,0,0,0,9,0l9-9a6.36,6.36,0,0,1,9,0h0a6.36,6.36,0,0,1,0,9l-18,18a6.37,6.37,0,0,1-9,0l-9-9A6.37,6.37,0,0,1,370.5,372.55Z" transform="translate(-72 -124.5)"/><path class="cls-4" d="M265.5,126h0a4.49,4.49,0,0,1,4.5,4.5v9a4.49,4.49,0,0,0,4.5,4.5h9a4.49,4.49,0,0,1,4.5,4.5h0a4.49,4.49,0,0,1-4.5,4.5h-9a4.49,4.49,0,0,0-4.5,4.5v9a4.49,4.49,0,0,1-4.5,4.5h0a4.49,4.49,0,0,1-4.5-4.5v-9a4.49,4.49,0,0,0-4.5-4.5h-9a4.49,4.49,0,0,1-4.5-4.5h0a4.49,4.49,0,0,1,4.5-4.5h9a4.49,4.49,0,0,0,4.5-4.5v-9A4.49,4.49,0,0,1,265.5,126Z" transform="translate(-72 -124.5)"/><path class="cls-4" d="M220.5,162h0a4.49,4.49,0,0,1,4.5,4.5v9a4.49,4.49,0,0,0,4.5,4.5h9a4.49,4.49,0,0,1,4.5,4.5h0a4.49,4.49,0,0,1-4.5,4.5h-9a4.49,4.49,0,0,0-4.5,4.5v9a4.49,4.49,0,0,1-4.5,4.5h0a4.49,4.49,0,0,1-4.5-4.5v-9a4.49,4.49,0,0,0-4.5-4.5h-9a4.49,4.49,0,0,1-4.5-4.5h0a4.49,4.49,0,0,1,4.5-4.5h9a4.49,4.49,0,0,0,4.5-4.5v-9A4.49,4.49,0,0,1,220.5,162Z" transform="translate(-72 -124.5)"/><rect class="cls-4" x="126" y="109.5" width="90" height="9" rx="4.5"/><rect class="cls-4" x="108" y="127.5" width="90" height="9" rx="4.5"/><rect class="cls-4" x="90" y="127.5" width="9" height="9" rx="4.5"/></svg>