<svg id="Layer_1" data-name="Layer 1" xmlns="http://www.w3.org/2000/svg" viewBox="0 0 411.11 206.37"><defs><style>.cls-1{fill:#0b60ae;}.cls-2{fill:#008bc7;}.cls-3{fill:#363f97;}</style></defs><title>logo</title><path class="cls-1" d="M84.54,485.2l121.4-182.11a12.09,12.09,0,0,1,20.12,0L347.46,485.2A12.09,12.09,0,0,1,337.4,504H94.6A12.09,12.09,0,0,1,84.54,485.2Z" transform="translate(-82.48 -297.63)"/><path class="cls-2" d="M481.58,504H238.42a12,12,0,0,1-10-18.66L350,303a12,12,0,0,1,20,0L491.56,485.34A12,12,0,0,1,481.58,504Z" transform="translate(-82.48 -297.63)"/><path class="cls-3" d="M347.46,485.2,288,396l-59.56,89.34a12,12,0,0,0,10,18.66h99A12.09,12.09,0,0,0,347.46,485.2Z" transform="translate(-82.48 -297.63)"/></svg>